<?xml version="1.0" encoding="UTF-8" standalone="no"?>
<!-- Created with Inkscape (http://www.inkscape.org/) -->

<svg
   xmlns:dc="http://purl.org/dc/elements/1.1/"
   xmlns:cc="http://creativecommons.org/ns#"
   xmlns:rdf="http://www.w3.org/1999/02/22-rdf-syntax-ns#"
   xmlns:svg="http://www.w3.org/2000/svg"
   xmlns="http://www.w3.org/2000/svg"
   xmlns:sodipodi="http://sodipodi.sourceforge.net/DTD/sodipodi-0.dtd"
   xmlns:inkscape="http://www.inkscape.org/namespaces/inkscape"
   width="16"
   height="16"
   viewBox="0 0 16 16"
   version="1.1"
   id="svg8"
   inkscape:version="0.92.4 (5da689c313, 2019-01-14)"
   sodipodi:docname="subcherry.svg"
   inkscape:export-filename="C:\Users\wta.ADG\Desktop\mrg_wiz@2x.png"
   inkscape:export-xdpi="192"
   inkscape:export-ydpi="192">
  <defs
     id="defs2" />
  <sodipodi:namedview
     id="base"
     pagecolor="#ffffff"
     bordercolor="#666666"
     borderopacity="1.0"
     inkscape:pageopacity="0.0"
     inkscape:pageshadow="2"
     inkscape:zoom="44.8"
     inkscape:cx="8.1150503"
     inkscape:cy="8.7388311"
     inkscape:document-units="px"
     inkscape:current-layer="layer1"
     showgrid="false"
     units="px"
     inkscape:pagecheckerboard="true"
     borderlayer="false"
     inkscape:showpageshadow="false"
     inkscape:window-width="1920"
     inkscape:window-height="1051"
     inkscape:window-x="1911"
     inkscape:window-y="-9"
     inkscape:window-maximized="1" />
  <metadata
     id="metadata5">
    <rdf:RDF>
      <cc:Work
         rdf:about="">
        <dc:format>image/svg+xml</dc:format>
        <dc:type
           rdf:resource="http://purl.org/dc/dcmitype/StillImage" />
        <dc:title></dc:title>
      </cc:Work>
    </rdf:RDF>
  </metadata>
  <g
     inkscape:label="Ebene 1"
     inkscape:groupmode="layer"
     id="layer1"
     transform="translate(0,-292.76665)">
    <path
       style="fill:#a02c2c;fill-opacity:1;stroke:#000000;stroke-width:0.2;stroke-linecap:butt;stroke-linejoin:round;stroke-miterlimit:4;stroke-dasharray:none;stroke-opacity:1;opacity:1"
       d="m 2.2543104,302.20753 c -0.997276,1.02184 -0.756657,2.5138 -0.415765,3.36222 0.340899,0.84828 1.517619,1.78923 2.541542,1.9183 1.023832,0.12955 2.342829,-0.31377 3.043701,-1.13522 0.700833,-0.8212 1.096094,-2.33869 0.31358,-3.39572 -0.782526,-1.05708 -2.5114826,-1.00318 -2.5114826,-1.00318 0,0 -1.9742674,-0.76793 -2.9715754,0.2536 z"
       id="path3713"
       inkscape:connector-curvature="0"
       sodipodi:nodetypes="zzzzzcz" />
    <path
       style="fill:none;stroke:#000000;stroke-width:0.2;stroke-linecap:butt;stroke-linejoin:round;stroke-miterlimit:4;stroke-dasharray:none;stroke-opacity:1"
       d="m 5.2394749,303.26278 c -0.1633929,-1.20545 -0.00516,-2.29124 0.261564,-3.3942 0.2003465,-0.82847 0.5175781,-1.64823 0.9901866,-2.35755 0.5045347,-0.75724 1.3379138,-1.57408 1.9155967,-1.94479"
       id="path4520"
       inkscape:connector-curvature="0"
       sodipodi:nodetypes="caac" />
    <path
       style="fill:#a02c2c;fill-opacity:1;stroke:#000000;stroke-width:0.2;stroke-linecap:butt;stroke-linejoin:round;stroke-miterlimit:4;stroke-dasharray:none;stroke-opacity:1"
       d="m 10.433093,298.65519 c 0,0 -2.0575535,0.86258 -1.8734097,2.27858 0.1840417,1.41587 1.5041437,2.15147 2.3812827,2.40965 0.877091,0.25806 2.344771,-0.0824 3.080533,-0.80599 0.736071,-0.72336 1.205437,-2.03327 0.995007,-3.09237 -0.210281,-1.05894 -1.156404,-2.30939 -2.470991,-2.35024 -1.314554,-0.0408 -2.112397,1.56055 -2.112397,1.56055 z"
       id="path3713-5"
       inkscape:connector-curvature="0"
       sodipodi:nodetypes="czzzzzc" />
    <path
       style="fill:none;stroke:#000000;stroke-width:0.2;stroke-linecap:butt;stroke-linejoin:round;stroke-miterlimit:4;stroke-dasharray:none;stroke-opacity:1"
       d="M 11.562866,299.34261 C 10.766462,298.93834 9.877925,298.1589 9.2576757,297.35635 8.8517613,296.83113 8.5063323,296.14072 8.3801239,295.56876"
       id="path4520-8"
       inkscape:connector-curvature="0"
       sodipodi:nodetypes="cac" />
    <path
       style="fill:#3a9d5e;fill-opacity:1;stroke:#000000;stroke-width:0.2;stroke-linecap:butt;stroke-linejoin:miter;stroke-miterlimit:4;stroke-dasharray:none;stroke-opacity:1"
       d="m 8.2994462,295.4866 c 0,0 -1.647499,-2.18169 -3.2451135,-2.02195 -0.9118718,0.0912 -1.7600026,0.68374 -2.6750847,0.63429 -0.2678754,-0.0145 -0.7585285,-0.26898 -0.7585285,-0.26898 0,0 0.4287359,1.98867 1.193463,2.51344 0.7652681,0.52515 2.0693142,0.69339 2.7764681,0.20962 1.360341,-0.93067 2.7087956,-1.06642 2.7087956,-1.06642 z"
       id="path4552"
       inkscape:connector-curvature="0"
       sodipodi:nodetypes="csacasc" />
    <path
       style="fill:none;stroke:#000000;stroke-width:0.2;stroke-linecap:butt;stroke-linejoin:miter;stroke-miterlimit:4;stroke-dasharray:none;stroke-opacity:1"
       d="m 4.3945988,302.8738 c 0.322719,0.43899 1.343151,0.54317 1.6778888,-0.0223"
       id="path4628"
       inkscape:connector-curvature="0"
       sodipodi:nodetypes="cc" />
    <path
       style="fill:none;stroke:#000000;stroke-width:0.2;stroke-linecap:butt;stroke-linejoin:miter;stroke-miterlimit:4;stroke-dasharray:none;stroke-opacity:1"
       d="m 10.766299,299.72121 c 0.541968,0.0559 1.304751,-0.62986 1.110845,-1.25771"
       id="path4628-1"
       inkscape:connector-curvature="0"
       sodipodi:nodetypes="cc" />
  </g>
</svg>
